<?xml version="1.0" encoding="utf-8"?>
<!-- Generator: Adobe Illustrator 23.0.2, SVG Export Plug-In . SVG Version: 6.00 Build 0)  -->
<svg version="1.1" id="Layer_1" xmlns="http://www.w3.org/2000/svg" xmlns:xlink="http://www.w3.org/1999/xlink" x="0px" y="0px"
	 viewBox="0 0 1920 1080" style="enable-background:new 0 0 1920 1080;" xml:space="preserve">
<g>
	<g>
		<path d="M800.9,580.8c-7.4-0.4-13.9-0.8-20.4-1c-2.2-0.1-2.5-0.8-1.9-2.7c1.4-4.7,2.7-9.3,3.9-14.1c0.6-2.3,1.6-3.2,4-3.3
			c6.3-0.4,12.7,0,19-1.5c-6.2-0.3-12.4-0.7-18.7-0.9c-2-0.1-2.7-0.6-2-2.6c0.9-2.7,1.6-5.5,2.4-8.3c1.3-4.6,1.3-4.6-2.6-8.6
			c9.1-0.5,17.6-1,26.2-1.4c0-0.2,0-0.5,0-0.7c-8.4-0.4-16.9-0.9-25.3-1.1c-3.4-0.1-6.1-1-8.7-3.5c-4.8-4.7-9.9-9.1-15.6-14.4
			c19.1-0.9,37.3-1.8,55.5-2.7c0-0.2,0-0.5,0-0.7c-6.7-0.3-13.4-0.7-20.2-1c-12.6-0.6-25.2-1.2-37.8-1.8c-2.9-0.1-5.7-0.4-7.7-3
			c-0.8-1.1-2-1.9-2.4,0.4c-0.3,2.1-1.8,2-3.4,1.9c-18.7-1-37.4-1.9-56.2-2.8c-2-0.1-2.4-0.7-1.8-2.5c0.1-0.2,0.2-0.5,0.2-0.7
			c1.5-5.8,1.5-5.8,7.4-6.1c35.6-1.7,71.1-3.4,106.7-5.1c6.9-0.3,13.8-0.7,20.7-1.8c-5.3-0.3-10.6-0.6-15.9-0.9
			c-33.1-1.6-66.2-3.2-99.2-4.8c-4-0.2-8-0.5-12-0.6c-2,0-2.2-0.7-1.7-2.5c1.6-6.4,1.5-6.5,8.1-6.8c41.1-2,82.1-3.9,123.2-5.9
			c1.2-0.1,2.4-0.2,3.6-0.6c-6.2-1.1-12.5-0.5-18.8-1.7c1.5-5.8,3-11.5,4.3-17.2c0.4-2,1.6-2.2,3.2-2.3c6-0.3,12-0.6,18.9-1
			c-4.5-1.5-8.2-1-11.8-1.2c-9.1-0.4-9.1-0.4-6.8-9.2c0.2-0.6,0.4-1.2,0.4-1.8c0.3-3.6,2.1-4.5,5.7-4.4c19.4,0.2,38.7,0.2,58.1,0
			c3.4,0,3.8,0.8,3,4c-16.1,59.8-32.1,119.5-48,179.3c-0.6,2.3-1.5,3.2-4,3.2c-20.4-0.1-40.7-0.1-61.1,0c-3,0-3.5-0.6-2.7-3.6
			c2.4-8.1,2.3-8.2,10.8-8.4c2.5-0.1,5-0.2,7.5-0.3c2.6-0.2,5.2-0.4,7.8-0.9c-6.6-0.3-13.2-0.8-19.9-1c-2.3-0.1-3.4-0.3-2.5-3.1
			c1.5-4.6,2.7-9.3,3.9-14.1c0.5-2,1.4-2.8,3.6-2.9C786.6,581.9,793.4,582.1,800.9,580.8z"/>
		<path d="M1025.2,424.4c-13.5,0-26.9,0.3-40.1-0.2c-4.4-0.2-8.8-2.7-13.2-4.1c-44.3-14.2-89.3-25.5-135.3-32.1
			c-31.8-4.6-63.8-7.2-96-4.7c-16.6,1.3-33,3.8-48.5,10.3c-5,2.1-9.7,4.6-14.1,7.8c-13.7,10.1-18.2,24.2-12.9,40.4
			c4.1,12.5,11.8,22.8,20.5,32.4c1.7,1.9,2.2,3.5,1.4,5.9c-2.4,7.8-4.5,15.6-6.6,23.4c-0.5,1.9-1.1,2.2-2.7,1.1
			c-24.2-17-47.5-35.1-65.3-59.1c-6.7-9-12-18.7-14-29.9c-2.5-14.3,2.2-25.8,13.2-34.9c11.1-9.1,24.3-13.6,38-16.8
			c27.1-6.2,54.7-7,82.4-5.7c88,4.2,172.7,24.9,256,52.4c11.4,3.7,22.6,7.9,33.9,11.9C1022.9,422.9,1024.3,422.9,1025.2,424.4z"/>
		<path d="M1145.4,531.3c-15.1-0.9-29.2-1.8-43.3-2.4c-3.1-0.1-3.5-1-2.6-3.6c1.1-3.3,2.1-6.7,2.8-10.1c0.5-2.5,1.7-3.2,4-3.4
			c11.5-0.5,23-1.2,34.4-1.8c3-0.2,6-0.1,9.3-1.1c-14.4-0.8-28.3-1.7-42.3-2.4c-2.7-0.1-3-1-2.3-3.3c1.1-3.6,2.1-7.2,2.9-10.8
			c0.5-2.3,1.7-2.9,3.9-3c11.5-0.6,23-1.2,34.4-1.8c2.5-0.1,5,0,7.4-1.2c-10.2-0.6-20.5-1.2-30.7-1.8c-1.6-0.1-3.3-0.1-4.9-0.2
			c-2.4-0.2-5.4,0.3-6.9-1c-1.4-1.3,0.6-4.1,1-6.2c0.6-3-1.7-1.9-2.8-1.9c-11.6-0.1-23.2-0.1-34.9-0.1c-2.6,0-5.3,0.1-7.9-0.1
			c-1.2-0.1-3.5,1.1-3.5-1.3c0-2.1,0.5-4.3,3.8-4.4c9.4-0.3,18.7-1,28.1-1.5c20.1-1.1,40.2-2.1,60.3-3.2c1-0.1,2.3,0.3,3.3-1
			c-10.1-0.6-20.1-1.2-30-1.8c-19.3-1.1-38.7-2.2-58-3.2c-2.6-0.1-3.5-0.6-2.6-3.5c2.4-8.1,2.2-8.1,10.6-8.5
			c27.4-1.5,54.9-3,82.3-4.5c0.7,0,1.4-0.2,2.2-1c-4.6-0.3-9.2-0.6-13.8-0.9c-24.1-1.4-48.2-2.7-72.2-4.1c-1.1-0.1-3.6,1.1-3.3-1.5
			c0.3-2-0.1-5.2,3.7-4.9c0.6,0.1,1.2,0,1.9,0c51.5,0,103,0,154.5,0c4.9,0,4.9,0,3.7,4.5c-3.4,12.4-7,24.7-10.3,37.2
			c-0.8,2.9-2,3.6-4.9,3.6c-14.9-0.1-29.7,0-44.6-0.1c-3.3,0-4.5,1-5.3,4.1c-11.7,44.3-23.6,88.5-35.3,132.7c-0.9,3.3-2,4.6-5.7,4.5
			c-17.9-0.2-35.7-0.2-53.6,0c-3.3,0-3.6-1-2.8-3.8c3-10.9,3-10.8,14.3-11.3c13.2-0.6,26.4-1.5,39.6-2.7c-15-0.8-29.9-1.7-44.9-2.5
			c-4.4-0.2-4.4-0.2-3.3-4.4c0.5-1.7,0.9-3.4,1.4-5c2-7.4,2-7.3,9.8-7.7c12.9-0.7,25.7-1.4,38.5-2.2c1.2-0.1,2.4-0.3,3.6-0.6
			c-14.6-0.8-29.2-1.7-43.8-2.5c-4.7-0.3-4.7-0.2-3.4-4.8c0.5-1.8,1-3.6,1.5-5.4c1.8-6.6,1.8-6.6,8.9-7c14-0.7,27.9-1.5,41.9-2.8
			c-14.5-0.8-29-1.8-43.5-2.4c-3.6-0.1-3.8-1.3-2.9-4.1c1-3,1.9-6,2.4-9c0.5-3.1,2.2-3.9,5.1-4c11.1-0.5,22.2-1.1,33.3-1.7
			C1137.7,532.3,1141.1,532.3,1145.4,531.3z"/>
		<path d="M1172.1,663.8c-13.7,0-29.6-1.1-45.6-2.4c-2.3-0.2-3-0.8-2.3-3.2c1.6-5.4,3.1-10.8,4.3-16.3c0.6-2.6,1.8-3,4.1-3
			c18.4-0.4,36.6-2.1,54.4-7.4c8.5-2.5,16.7-5.9,23.9-11.2c13.8-10.1,18.4-24,13.2-40.2c-4.3-13.5-12.9-24.4-22.3-34.7
			c-8.9-9.7-18.8-18.3-29.3-26.2c-1.9-1.4-2.5-2.6-1.8-4.9c1.8-5.7,3.4-11.5,4.9-17.3c0.5-2,1.2-2.1,2.8-1.1
			c33.5,20.4,66,42,91.9,72c8.9,10.3,16.4,21.4,19.8,34.9c3.9,15.5-0.5,28.4-12.8,38.4c-11,9-24.2,13.4-37.7,16.5
			C1218.2,662.7,1196.4,663.9,1172.1,663.8z"/>
		<path d="M881.7,605.1c25.9-1.5,51.8-3,77.7-4.5c0-0.2,0-0.3,0-0.5c-8.3-0.5-16.6-1.1-24.8-1.6c-19.2-1.2-38.4-2.6-57.6-3.3
			c-5.8-0.2-8.1-2.8-9.7-7.5c-1.4-4-1.5-4,2.8-4.2c31.3-1.8,62.6-3.6,93.9-5.4c0.2,0,0.5-0.1,1.5-0.5c-9.3-0.6-17.9-1.1-26.5-1.6
			c-23.6-1.4-47.1-2.9-70.7-4.2c-3.1-0.2-3.9-1.3-3.4-4c0.2-1.1,0.3-2.2,0.3-3.4c-0.1-2.3,1.1-2.8,3.2-2.9
			c15.7-0.8,31.4-1.8,47.1-2.8c4.2-0.3,8.5-0.5,12.7-0.7c1.2-0.1,2.5-0.3,3.1,1.3c2.5,5.7,7.3,7,12.9,7c21.7,0,43.5,0,65.2,0
			c3.9,0,7.7,0.1,11.6,0c2.1-0.1,2.9,0.2,2.2,2.7c-4.3,15.1-8.5,30.3-12.7,45.4c-0.5,1.9-1.5,2.5-3.4,2.5
			c-30.7-0.3-61.5,0.6-92.2-0.5c-11-0.4-21.5-3-31-8.9c-0.8-0.5-1.6-1.1-2.4-1.7C881.7,605.6,881.7,605.4,881.7,605.1z"/>
		<path d="M990,465.2c-31.6-1.9-63.3-3.8-95.3-5.7c1.9-4.1,4.7-7.1,7.3-10.2c0.7-0.9,1.8-0.8,2.8-0.8c26.6-1.5,53.1-3,79.7-4.6
			c3.5-0.2,7-0.5,10.4-1.2c-26.4-1.6-52.7-3.2-80-4.8c5.8-4.3,11.5-6.6,17.7-7.5c2.6-0.4,5.2-0.5,7.8-0.5c39.1,0,78.2,0,117.3,0
			c4.4,0,4.4,0,3.2,4.2c-3.7,12.4-7.5,24.8-11,37.3c-0.8,3-2.2,3.8-5.2,3.7c-28.9-0.1-57.7,0-86.6-0.1c-3.2,0-4.6,0.8-5.3,4
			c-1.5,6.4-1.7,6.5-8.5,6.1c-18.5-1-36.9-2.2-55.4-3.2c-2.8-0.1-3.7-0.7-2.7-3.8c2.1-6.5,1.9-6.7,8.5-7.1
			c27.7-1.6,55.4-3.2,83.1-4.8c4.1-0.2,8.1-0.6,12.2-0.9C990.1,465.5,990.1,465.4,990,465.2z"/>
		<path d="M805.1,467.2c-33.9-1.7-69.7-3.4-106.1-5.2c0.7-2.7,1.5-5.1,2.1-7.6c0.4-1.6,1.5-1.4,2.6-1.4c27.7-1.3,55.3-2.6,83-3.9
			c1.1-0.1,2.3-0.2,3.1,0.8C795.2,455.9,800.5,462,805.1,467.2z"/>
		<path d="M1048.7,682.8c-4,8.6-8,16.9-11.7,25.4c-1.3,2.9-2.9,3.8-5.9,3.7c-6.8-0.2-6.8-0.1-6.6-7c0.3-10.2,0.9-20.5,1.1-30.7
			c0.1-2.7,0.9-3.7,3.7-3.5c6.4,0.3,5.6-1,5.5,5.9c-0.1,7.1,0,14.1,0,21.3c0.7-1.4,1.5-2.8,2.2-4.3c3.2-6.8,6.3-13.6,9.5-20.4
			c1-2.2,8.2-3.7,9.8-2.1c0.9,0.9,0.4,2.1,0.4,3.2c0,7.8,0,15.7,0,23.4c1-2.1,2.2-4.4,3.3-6.8c2.7-5.6,5.3-11.3,7.9-16.9
			c1.3-2.7,7-4.6,9.4-3.1c1.4,0.9,0.2,2-0.2,2.9c-3.2,7-6.5,14-9.8,21.1c-2.2,4.8-4.6,9.4-6.6,14.3c-0.9,2.2-2.2,2.8-4.5,2.8
			c-8-0.1-7.9,0-7.7-8.1C1048.8,696.9,1048.7,690,1048.7,682.8z"/>
		<path d="M969.5,696.9c2-7.8,4-15.6,6-23.4c0.6-2.3,7.3-4.2,9-2.5c0.7,0.7,0.3,1.7,0.1,2.5c-3,12-6.1,23.9-9.1,35.9
			c-0.5,1.9-1.4,2.4-3.3,2.5c-7.9,0.1-8,0.2-9.7-7.6c-1.4-6.2-2.7-12.4-4.1-18.6c-1.3,0.1-1.1,1.1-1.3,1.9
			c-1.8,7.1-3.6,14.3-5.4,21.4c-0.6,2.4-7.4,4.4-9.2,2.7c-0.6-0.6-0.2-1.4,0-2.1c3.1-12.1,6.2-24.1,9.2-36.2c0.5-2,1.3-2.5,3.3-2.6
			c8-0.2,8-0.3,9.7,7.6c1.4,6.3,2.8,12.5,4.2,18.7C969,696.9,969.2,696.9,969.5,696.9z"/>
		<path d="M913.2,506.2c-10.2-0.6-20.4-1.3-30.6-1.8c-2.8-0.1-3.2-1.1-2.5-3.7c1.8-6.3,1.7-6.5,8.1-6.9c19.3-1.2,38.6-2.2,57.9-3.4
			c3.3-0.2,3.8,0.7,2.7,3.7c-1.4,3.6-2.6,7.3-3.6,11c-0.6,2.2-1.6,2.9-3.9,2.8C931.9,507.2,922.6,506.7,913.2,506.2z"/>
		<path d="M942.5,513c-1.8,5.5-3.4,10.7-5.1,15.9c-0.6,1.9-2.2,1.3-3.5,1.2c-14.3-0.8-28.7-1.7-43-2.6c-5-0.3-10-0.7-15-0.9
			c-2.1-0.1-2.4-0.8-1.9-2.8c1.7-7,1.6-7.2,8.6-7.6c18.8-1.2,37.7-2.2,56.5-3.3C940.1,513,941.1,513,942.5,513z"/>
		<path d="M935.2,535.6c-1.7,5.5-3.4,10.7-5,15.9c-0.6,1.9-2,1.2-3,1.1c-13.1-0.7-26.2-1.5-39.3-2.3c-6-0.4-12-0.8-18-1.1
			c-1.8-0.1-2.3-0.5-1.8-2.4c1.6-7.2,1.5-7.4,8.8-7.8c18.6-1.2,37.2-2.2,55.7-3.3C933.4,535.5,934.1,535.6,935.2,535.6z"/>
		<path d="M781.4,443.3c-4-0.2-8.4-0.5-12.8-0.7c-19.8-1-39.6-2-59.5-2.8c-3.5-0.1-4-1.2-2.7-4.1c0.4-0.9,0.7-1.9,0.8-2.9
			c0.3-2.2,1.4-2.8,3.6-2.8c18.7,0.1,37.5,0,56.2,0c1.4,0,2.7,0.1,3.7,1.3C774.2,435.3,777.8,439.3,781.4,443.3z"/>
		<path d="M984,711.8c3.3-13.3,6.6-26.2,9.8-39.1c0.4-1.7,1.4-2,3-2c6.9,0.1,13.7,0.1,20.6,0c1.9,0,2.6,0.3,2.1,2.5
			c-1.3,5.6-1.2,5.6-6.9,5.6c-2.7,0-5.5,0.1-8.2,0c-1.9-0.1-2.6,0.6-3.1,2.3c-1.5,5.3-1.5,5.2,3.9,5.2c1.6,0,3.3-0.1,4.9,0
			c1.5,0.1,3.9-0.8,4.4,0.6c0.7,2.2-0.6,4.6-1.4,6.8c-0.4,1.1-1.5,0.6-2.3,0.7c-2.9,0.1-5.7,0-8.6,0.1c-1.4,0-3.5-0.8-4.2,0.7
			c-1.1,2.3-1.5,5-1.9,7.6c-0.2,1.2,1.3,0.9,2,0.9c3.9,0.1,7.7,0.1,11.6,0c1.9,0,2.3,0.7,2,2.5c-0.9,5.7-0.9,5.7-6.8,5.7
			C998.1,711.8,991.2,711.8,984,711.8z"/>
		<path d="M1076.4,700.8c3.4,1.9,6.5,3.4,10,3.9c2.3,0.3,4.5,0.1,6.6-0.8c2-0.9,3.1-2.5,3.1-4.7c0-2.2-1.9-2.7-3.6-3.2
			c-2.4-0.7-4.8-1.3-7.1-2.2c-4.3-1.8-6-5-5.2-9.6c1.6-8.9,7.8-14.1,17.1-14.1c3.2,0,6.4,0.5,9.6,1.2c2.3,0.5,3.4,1.3,2.3,3.7
			c-0.3,0.6-0.4,1.2-0.5,1.8c-0.3,3.4-1.5,4.1-4.7,2.5c-3.1-1.7-6.8-1.7-10.3-1c-2.4,0.5-4.2,1.9-4.4,4.5c-0.2,2.8,2.2,3,4.1,3.5
			c2.8,0.8,5.6,1.2,8.2,2.5c3,1.5,4.5,3.9,4.4,7.2c-0.3,9.1-6.6,15.8-15.6,16.7c-4.7,0.5-9.2-0.2-13.6-1.7c-2-0.6-3-1.5-2.1-3.7
			C1075.4,705.1,1075.8,703.2,1076.4,700.8z"/>
		<path d="M745.7,517.6c-1.3,4.6-2.6,8.9-3.7,13.2c-0.4,1.7-1.5,1.7-2.8,1.6c-18.8-1-37.7-1.9-56.5-2.8c-1.9-0.1-2.2-0.5-1.8-2.4
			c1.5-6.5,1.4-6.6,8-6.9c17.8-0.9,35.7-1.8,53.5-2.7C743.3,517.5,744.3,517.6,745.7,517.6z"/>
		<path d="M708.2,541.5c9.2-0.5,18.5-0.8,27.7-1.5c3.3-0.2,3.5,0.9,2.6,3.5c-1.3,3.6-0.9,8.5-3.7,10.7c-2.6,2.1-7.2,0.2-10.9,0
			c-15.7-0.6-31.4-1.5-47.1-2.2c-2.4-0.1-2.6-0.8-2-2.9c1.6-6,1.5-6.1,7.6-6.4C691,542.2,699.6,541.8,708.2,541.5
			C708.2,541.4,708.2,541.4,708.2,541.5z"/>
		<path d="M698.5,575.8c-9.2-0.4-18.5-1-27.7-1.3c-2.5-0.1-2.9-0.8-2.3-3.1c1.5-5.8,1.4-5.9,7.4-6.2c18-0.9,35.9-1.7,53.9-2.7
			c2.5-0.1,3.3,0.4,2.4,3c-1.3,3.7-1.3,8.8-3.8,11.1c-2.4,2.2-7.4,0.1-11.2,0.1c-3.1,0-6.2-0.4-9.3-0.5c-3.1-0.1-6.2,0-9.4,0
			C698.5,576.1,698.5,575.9,698.5,575.8z"/>
		<path d="M713.3,599.3c-16.3-0.8-32.6-1.6-49-2.3c-2.2-0.1-2.9-0.7-2.1-2.8c0.4-1.2,0.8-2.4,1-3.6c0.3-2.1,1.5-2.7,3.6-2.8
			c18.8-0.8,37.6-1.7,56.4-2.8c3.3-0.2,3.4,0.9,2.5,3.5c-1,2.8-1.8,5.7-2.5,8.6c-0.5,2.2-1.5,2.9-3.6,2.6
			C717.6,599.3,715.4,599.4,713.3,599.3C713.3,599.3,713.3,599.3,713.3,599.3z"/>
		<path d="M957.7,633.2c-0.4,4.1-3.1,4.1-5.8,3.7c-3.2-0.5-4.3,0.9-4.9,3.9c-1.1,5.4-2.6,10.6-4,16c-0.7,2.5-4.1,4.1-6.3,2.8
			c-1.3-0.7-0.6-1.7-0.3-2.6c1.4-5.7,2.7-11.4,4.3-17c0.7-2.3,0.4-3.2-2.2-3c-1.7,0.2-3.4,0-5.1,0c-0.2-4.3,1.5-5.7,5.6-5.5
			c7.4,0.4,14.7,0.3,22.1,0c2.9-0.1,4.3,0.8,4.9,3.6c0.4,1.9,1.2,3.8,1.9,5.9c2.7-2,4.6-4.5,6.2-7c2.3-3.5,5.4-2.2,9.3-2.5
			c-2.9,3.4-5.1,6.5-7.7,9.2c-4.4,4.5-7.3,9.6-8.3,15.9c-0.4,2.8-3.6,4.2-6.2,3c-0.7-0.3-1-0.7-0.8-1.4c0.1-0.4,0.1-0.8,0.2-1.1
			C965,648.6,960.7,641.2,957.7,633.2z"/>
		<path d="M686.7,616.6c-8.9,0-17.7,0.1-26.6-0.1c-1.2,0-3.8,1.4-3.7-1.3c0.1-2.1,0.2-5,4-5c6.6,0,13.2-0.6,19.8-1
			c12.1-0.6,24.2-1.1,36.3-1.7c2.7-0.1,3.9,0.1,2.8,3.3c-1.9,5.7-1.7,5.8-7.6,5.8C703.5,616.6,695.1,616.6,686.7,616.6z"/>
		<path d="M775.8,648.7c1.3-5,2.6-10.1,3.9-15.1c0.5-1.8,4.7-3.1,6.1-2c0.7,0.6,0.3,1.4,0.1,2.1c-2,8-4,15.9-6,23.9
			c-0.7,3-3.1,1.8-4.9,2c-1.6,0.2-3.1,0.3-3.5-2.1c-1-5.2-2.3-10.4-4.1-15.6c-1.3,5-2.6,10-3.9,15c-0.6,2.4-4,3.8-6.1,2.7
			c-1-0.5-0.6-1.2-0.4-1.9c2-8.1,4.2-16.2,6.1-24.3c0.8-3.4,3.4-1.5,5.2-1.9c1.7-0.4,2.8,0.2,3.2,2.1c1,5.1,2.2,10.1,3.3,15.2
			C775.3,648.8,775.6,648.7,775.8,648.7z"/>
		<path d="M1051.3,659.6c-7,0.2-7,0.2-5.3-6.4c1.6-6.4,3.3-12.8,4.8-19.2c0.4-1.9,1.2-2.7,3.3-2.6c3.1,0.2,6.3-0.1,9.3,0.3
			c6.6,0.7,9.9,5.2,8.9,11.7c-1.5,9.8-7.7,15.5-17.6,16.1C1053.6,659.5,1052.5,659.6,1051.3,659.6z M1054.9,654
			c6.6-0.1,11.9-6.9,10.4-13c-0.8-3.4-3.5-3.8-6.3-4.1c-2.9-0.3-2.7,2-3.1,3.7c-1,3.6-1.8,7.2-2.8,10.8
			C1052.5,653.3,1052.7,654.6,1054.9,654z"/>
		<path d="M1026.3,660.1c-6.8,0-10.4-3.8-10-10.6c0.6-9.6,6.7-17.1,15.1-18.4c8.5-1.4,13.5,3.7,12.1,12.2
			C1041.7,653.8,1035.3,660.1,1026.3,660.1z M1036.8,641.4c-0.1-1.8-0.3-3.7-2.3-4.7c-2.3-1.1-4.4-0.5-6.3,1
			c-3.2,2.6-4.3,6.3-4.9,10.2c-0.4,2.6-0.4,5.2,2.4,6.5c2.7,1.2,5.1,0.2,7.1-1.9C1035.6,649.4,1036.6,645.5,1036.8,641.4z"/>
		<path d="M840.7,631.8c-0.6,2.5-1.1,5.1-1.9,7.6c-0.7,2.3,0.1,3,2.3,2.7c0.1,0,0.2,0,0.4,0c6.2,0.1,6.1,0.1,7.8-5.9
			c0.5-1.6-0.1-4.1,2.3-4.6c1.5-0.3,3.5-0.4,4.7,0.3c1.1,0.7,0,2.5-0.4,3.8c-1.7,6.9-3.8,13.7-5.1,20.7c-0.8,4-3.3,3.7-5.8,3.2
			c-2.9-0.6-0.5-2.8-0.6-4.2c0-0.4,0.1-0.7,0.2-1.1c1.7-6.6,0.6-7.7-6.4-6.5c-1.4,0.3-1.8,1-2.1,2.2c-0.6,2.6-1.4,5.1-1.9,7.6
			c-0.3,1.5-1,2-2.5,2.1c-4.4,0.3-4.7,0.1-3.6-4.3c1.6-6.3,3.2-12.6,4.8-18.9C834.3,630.9,834.3,631,840.7,631.8z"/>
		<path d="M820,644c1,0,2,0,3,0c1.7-0.1,2.2,0.6,1.8,2.3c-0.9,3.2-1.7,6.5-2.6,9.8c-0.2,0.7-0.4,1.3-1.1,1.9c-3.5,2.6-13.2,3-17,0.7
			c-2.4-1.5-3.7-3.7-4-6.4c-1.7-13.5,10.6-24.2,23.6-20.6c3.4,0.9,4.1,3.2,2.2,6.1c-0.8,1.3-1.4,0.4-2.1,0
			c-7.9-4.1-15.9-0.1-16.8,10.7c-0.4,4.7,3.7,7.8,8.2,6.2c2.1-0.7,1.8-2.8,2.2-4.4c0.4-1.6-0.9-1.4-1.9-1.5c-1.1,0-1.6-0.4-1.2-1.6
			c0.4-1.2,0.1-3,2-3.2C817.5,643.9,818.8,644,820,644C820,644,820,644,820,644z"/>
		<path d="M1070.4,659.3c5.3-9.1,10.4-17.9,15.6-26.5c1.7-2.8,4.8-1.2,7.3-1.2c2.2,0,1.5,2.2,1.6,3.6c0.6,7.1,1.1,14.2,1.7,21.3
			c0.1,1.6,0.5,3.4-2.1,3.2c-2-0.1-4.6,0.8-4.4-2.8c0.1-2.1-1.1-2.5-2.8-2.4c-1.9,0.1-3.7,0.1-5.6,0c-1.2,0-2.3,0.3-2.7,1.5
			C1077.5,660.2,1074.4,660,1070.4,659.3z M1082.7,649.2c2.2,0,3.7,0,5.2,0c1,0,1.7-0.5,1.6-1.6c-0.2-2.7-0.4-5.4-0.6-8.1
			c-0.2,0-0.5,0-0.7,0C1086.5,642.5,1084.8,645.5,1082.7,649.2z"/>
		<path d="M913.4,652.7c-0.7,5.9-2.9,7.5-9.9,7.3c-5-0.1-8.5-2.1-9.5-6.2c-1.8-6.9,0.6-12.9,5.3-17.8c4.4-4.7,10.1-6.2,16.4-4.5
			c2.2,0.6,3.4,1.5,2.5,4.2c-0.7,2.1-1,2.8-3.4,1.6c-4.4-2.3-8.9-0.9-11.8,3.2c-2.7,3.9-3.7,10-1.6,12.3
			C905.2,656.8,909.3,654.2,913.4,652.7z"/>
		<path d="M1125.4,632c-2.2,2.6-4,5-6.2,7.3c-4.8,5.1-8.7,10.5-9.5,17.8c-0.3,2.3-4.8,3.7-6.5,2.4c-0.8-0.7-0.3-1.4-0.1-2
			c3.5-7.6,1.1-14.8-1.7-21.9c-0.4-1.1-2.5-3.3,0-3.8c2-0.4,5.4-2,6.5,2c0.7,2.4,1.5,4.7,2.4,7.2
			C1115.3,637.7,1116.5,628.8,1125.4,632z"/>
		<path d="M871.9,631.4c3,0,6-0.1,9,0c0.8,0,2.5-0.5,2.4,0.8c-0.1,1.6,0.1,3.6-1.9,4.5c-0.3,0.1-0.7,0.1-1.1,0.1
			c-6.5,0.6-6.5,0.6-8.1,6.9c-1.2,4.6-2.4,9.1-3.5,13.7c-0.9,3.8-3.8,2.2-5.8,2c-2.3-0.2-0.7-2.2-0.4-3.2c1.2-5.5,2.5-10.9,4.1-16.3
			c0.8-2.8-0.1-3.3-2.5-3.1c-0.6,0.1-1.3,0.1-1.9,0c-1-0.3-3,1-2.8-1.1c0.2-1.7-0.3-4.3,2.9-4.3
			C865.4,631.5,868.7,631.4,871.9,631.4z"/>
		<path d="M1007,631.4c3,0,6-0.1,9,0c0.8,0,2.5-0.6,2.3,0.9c-0.1,1.6,0.1,3.6-1.9,4.5c-0.2,0.1-0.5,0-0.7,0.1
			c-2.2,0.4-5.2-1.2-6.6,0.9c-1.3,1.8-1.3,4.5-1.9,6.8c-1.1,4.2-2.3,8.4-3.2,12.7c-0.8,3.8-3.7,2.4-5.7,2.2
			c-2.8-0.3-0.8-2.4-0.6-3.4c1-4.9,2.4-9.7,3.6-14.5c1.2-4.6,1.2-4.6-3.5-4.7c-3.6,0-4-0.8-2.7-4.1c0.6-1.5,1.5-1.4,2.7-1.4
			C1000.7,631.4,1003.8,631.4,1007,631.4z"/>
		<path d="M921,659.5c-2.8,0.5-3.6-0.4-2.9-3c2-7.6,4.1-15.1,5.8-22.7c0.9-3.8,3.7-2.4,5.6-2.2c2.8,0.2,0.9,2.3,0.7,3.4
			c-1.7,7.3-3.7,14.5-5.4,21.7C924.2,659,923.3,660.3,921,659.5z"/>
		<path d="M789.1,659.6c-2.9,0.5-3.4-0.5-2.7-3.3c2-7.3,3.7-14.7,5.6-22.1c0.6-2.4,4.1-3.8,6.4-2.7c1.1,0.5,0.5,1.2,0.4,1.9
			c-2,8.2-4.1,16.4-6.1,24.6C792.2,660.2,790.5,659.5,789.1,659.6z"/>
	</g>
</g>
</svg>
